<svg id="Layer_1" data-name="Layer 1" xmlns="http://www.w3.org/2000/svg" viewBox="0 0 128 128"><defs><style>.cls-1{fill:#fff;}.cls-2,.cls-3{fill:#009245;}.cls-3{font-size:7.13px;font-family:MyriadPro-Regular, Myriad Pro;}</style></defs><title>Artboard 1</title><path class="cls-1" d="M66,93.66c-19.59,0-35.54-14.61-35.54-32.58S46.45,28.5,66,28.5s35.54,14.62,35.54,32.58S85.63,93.66,66,93.66Z"/><path class="cls-2" d="M66,29c19.32,0,35,14.39,35,32.08S85.36,93.16,66,93.16,31,78.77,31,61.08,46.72,29,66,29m0-1c-19.9,0-36,14.81-36,33.08S46.14,94.16,66,94.16s36-14.81,36-33.08S85.94,28,66,28Z"/><ellipse class="cls-1" cx="62.04" cy="66.92" rx="35.54" ry="32.58"/><path class="cls-2" d="M62,34.84c19.31,0,35,14.39,35,32.08S81.35,99,62,99,27,84.61,27,66.92,42.72,34.84,62,34.84m0-1c-19.91,0-36,14.81-36,33.08S42.13,100,62,100s36-14.81,36-33.08S81.94,33.84,62,33.84Z"/><path class="cls-1" d="M62,69.61a1.54,1.54,0,1,1,1.54-1.53A1.54,1.54,0,0,1,62,69.61Z"/><path class="cls-2" d="M62,67a1,1,0,1,1-1,1,1,1,0,0,1,1-1m0-1a2,2,0,1,0,2,2,2,2,0,0,0-2-2Z"/><rect class="cls-1" x="52.77" y="53.08" width="32.11" height="1.14" transform="translate(-9.91 91.29) rotate(-63.49)"/><path class="cls-2" d="M75.7,39.7l.13.06L61.94,67.6l-.12-.06L75.7,39.7m-.44-1.34L60.48,68l1.91,1L77.17,39.32l-1.91-1Z"/><rect class="cls-1" x="61.71" y="63.3" width="23" height="0.55" transform="translate(-19.52 35.24) rotate(-23.98)"/><polygon class="cls-2" points="83.86 57.99 61.93 67.74 62.56 69.15 84.48 59.4 83.86 57.99 83.86 57.99"/><path class="cls-1" d="M80.34,32.93c-1.2,0-2.22-.7-2.22-1.53s1-1.54,2.22-1.54,2.22.7,2.22,1.54S81.54,32.93,80.34,32.93Z"/><path class="cls-2" d="M80.34,30.36c1,0,1.72.55,1.72,1s-.74,1-1.72,1-1.72-.54-1.72-1,.74-1,1.72-1m0-1c-1.5,0-2.72.91-2.72,2s1.22,2,2.72,2,2.72-.91,2.72-2-1.22-2-2.72-2Z"/><rect class="cls-1" x="44.38" y="82.5" width="37.25" height="8"/><path class="cls-2" d="M81.12,83v7H44.88V83H81.12m1-1H43.88v9H82.12V82Z"/><text class="cls-3" transform="translate(51.41 88.97)">00:01:24</text></svg>